<?xml version="1.0" standalone="no"?>
<!DOCTYPE svg PUBLIC "-//W3C//DTD SVG 20010904//EN"
 "http://www.w3.org/TR/2001/REC-SVG-20010904/DTD/svg10.dtd">
<svg version="1.0" xmlns="http://www.w3.org/2000/svg"
 width="1536.000000pt" height="1024.000000pt" viewBox="0 0 1536.000000 1024.000000"
 preserveAspectRatio="xMidYMid meet">

<g transform="translate(0.000000,1024.000000) scale(0.100000,-0.100000)"
fill="#000000" stroke="none">
<path d="M6760 7345 c0 -45 0 -45 35 -45 19 0 35 -4 35 -10 0 -5 -41 -104 -92
-220 l-92 -210 -43 0 -43 0 0 -45 0 -45 165 0 165 0 0 45 0 45 -61 0 c-45 0
-60 3 -56 13 3 6 12 30 21 52 l16 40 133 -2 132 -2 17 -33 c27 -53 23 -66 -19
-70 -37 -3 -38 -4 -41 -45 l-3 -43 140 0 141 0 0 45 c0 43 -1 45 -28 45 -27 0
-32 9 -142 265 l-115 265 -132 0 -133 0 0 -45z m237 -172 c24 -59 41 -108 39
-110 -2 -2 -44 -2 -93 -1 l-90 3 45 108 c24 59 47 107 51 107 3 0 25 -48 48
-107z"/>
<path d="M7320 7345 l0 -45 40 0 40 0 0 -220 0 -220 -30 0 c-29 0 -30 -2 -30
-45 l0 -45 150 0 150 0 0 45 0 45 -54 0 c-64 0 -66 3 -66 101 l0 69 69 0 69 0
89 -127 89 -128 87 -3 87 -3 0 46 0 45 -39 0 c-37 0 -42 5 -110 89 -39 49 -71
92 -71 95 0 2 18 15 40 27 48 27 80 86 80 150 0 67 -27 109 -90 142 l-54 27
-223 0 -223 0 0 -45z m420 -63 c31 -15 35 -22 38 -62 2 -37 -1 -50 -21 -68
-26 -24 -101 -40 -182 -38 l-50 1 -3 93 -3 92 93 0 c69 0 102 -5 128 -18z"/>
<path d="M8020 7260 l0 -130 55 0 55 0 0 80 0 80 65 0 65 0 0 -215 0 -215 -60
0 -60 0 0 -45 0 -45 185 0 185 0 0 45 0 45 -65 0 -65 0 0 214 0 214 58 4 c31
2 60 3 65 1 4 -3 7 -39 7 -81 l0 -77 55 3 55 4 0 124 0 124 -300 0 -300 0 0
-130z"/>
<path d="M7310 6623 c-418 -6 -1033 -37 -1350 -69 -177 -17 -499 -59 -579 -74
-70 -13 -80 -23 -16 -16 66 8 454 32 795 50 596 32 931 39 1671 33 750 -6 808
-8 1577 -53 243 -14 448 -24 454 -22 17 6 -300 53 -487 72 -112 12 -583 46
-770 56 -234 12 -946 31 -1055 28 -41 -1 -149 -4 -240 -5z"/>
<path d="M7580 5365 l0 -1105 60 0 60 0 0 1105 0 1105 -60 0 -60 0 0 -1105z"/>
<path d="M5305 6130 c-247 -28 -408 -162 -460 -382 -55 -233 48 -460 255 -561
97 -48 188 -67 325 -67 194 0 324 44 435 147 108 99 152 205 152 363 0 192
-90 346 -254 435 -100 54 -299 83 -453 65z m178 -141 c143 -22 241 -91 296
-208 22 -49 26 -69 26 -156 0 -93 -2 -105 -33 -167 -60 -123 -153 -183 -307
-198 -227 -23 -391 96 -425 306 -35 214 91 393 298 423 31 5 61 9 65 10 5 0
41 -4 80 -10z"/>
<path d="M6400 6120 c-157 -38 -247 -140 -238 -270 8 -105 67 -176 184 -220
31 -11 118 -32 193 -46 307 -57 331 -66 363 -125 20 -36 17 -76 -8 -114 -22
-34 -85 -64 -162 -77 -157 -27 -335 24 -448 126 l-49 43 -62 -51 c-34 -28 -62
-56 -62 -63 -1 -6 23 -31 52 -56 121 -103 221 -137 422 -144 259 -10 417 46
492 175 22 37 27 58 27 111 0 84 -17 134 -65 186 -55 60 -130 90 -299 120
-313 56 -349 68 -379 130 -12 26 -12 33 5 65 28 53 80 74 194 78 145 6 256
-28 340 -104 l39 -36 28 20 c15 11 43 36 61 54 l32 34 -42 42 c-49 50 -138 95
-229 117 -70 16 -327 19 -389 5z"/>
<path d="M3838 6114 c-5 -4 -8 -225 -8 -491 l0 -483 95 0 95 0 0 175 0 175
173 0 c198 0 279 11 359 47 118 53 174 152 166 293 -5 91 -33 147 -100 204
-81 69 -132 79 -473 84 -165 2 -303 1 -307 -4z m527 -144 c94 -15 144 -64 153
-149 6 -69 -23 -129 -81 -162 -40 -23 -52 -24 -229 -27 l-188 -4 0 176 0 176
143 0 c78 0 169 -5 202 -10z"/>
<path d="M8233 5758 c2 -252 7 -374 15 -400 34 -99 122 -179 242 -216 82 -25
354 -24 430 2 121 41 192 104 232 205 22 54 23 71 26 414 l3 357 -100 0 -101
0 0 -332 c0 -204 -4 -348 -11 -371 -14 -53 -71 -112 -127 -134 -57 -22 -186
-24 -253 -4 -59 16 -113 61 -142 114 -21 40 -22 55 -27 382 l-5 340 -93 3 -93
3 4 -363z"/>
<path d="M9438 6114 c-5 -4 -8 -225 -8 -491 l0 -483 100 0 100 0 0 185 0 185
134 0 133 0 134 -185 134 -185 113 0 c61 0 112 3 112 8 0 4 -32 48 -71 97
-190 240 -221 285 -202 291 47 14 104 46 137 75 51 44 76 99 83 178 13 150
-56 258 -192 301 -64 20 -96 22 -385 27 -173 3 -318 2 -322 -3z m611 -159 c59
-35 76 -67 76 -145 0 -80 -18 -113 -81 -145 -34 -17 -63 -20 -226 -23 l-188
-4 0 172 0 172 193 -3 c170 -4 196 -6 226 -24z"/>
<path d="M10530 5630 l0 -490 400 0 400 0 0 70 0 70 -300 0 -300 0 0 140 0
140 260 0 260 0 0 70 0 70 -260 0 -260 0 0 140 0 140 305 0 306 0 -3 68 -3 67
-402 3 -403 2 0 -490z"/>
</g>
</svg>
