<?xml version="1.0" standalone="no"?>
<!DOCTYPE svg PUBLIC "-//W3C//DTD SVG 20010904//EN"
 "http://www.w3.org/TR/2001/REC-SVG-20010904/DTD/svg10.dtd">
<svg version="1.0" xmlns="http://www.w3.org/2000/svg"
 width="989.000000pt" height="449.000000pt" viewBox="0 0 989.000000 449.000000"
 preserveAspectRatio="xMidYMid meet">

<g transform="translate(0.000000,449.000000) scale(0.100000,-0.100000)"
fill="#000000" stroke="none">
<path d="M3890 4086 l0 -55 44 -6 44 -7 -13 -37 c-22 -62 -207 -485 -217 -498
-6 -7 -32 -13 -59 -13 l-49 0 0 -55 0 -55 205 0 205 0 0 54 0 54 -70 7 c-38 4
-70 11 -70 15 0 5 10 34 22 65 l22 58 65 -7 c36 -3 112 -6 167 -6 l102 0 22
-52 c21 -49 21 -52 4 -65 -10 -7 -30 -13 -45 -13 -31 0 -39 -15 -39 -71 l0
-39 175 0 175 0 0 50 c0 47 -2 50 -34 64 -43 18 -47 25 -202 381 l-122 280
-166 3 -166 2 0 -54z m294 -217 c25 -64 46 -121 46 -127 0 -8 -34 -12 -111
-12 -129 0 -124 -18 -47 157 28 63 54 111 58 106 4 -4 29 -60 54 -124z"/>
<path d="M4590 4080 l0 -60 50 0 50 0 0 -275 0 -275 -34 0 c-32 0 -34 -2 -40
-46 -3 -25 -3 -50 0 -55 3 -5 88 -9 190 -9 l184 0 0 54 0 54 -65 7 c-80 8 -85
15 -85 130 l0 86 87 -3 88 -3 108 -155 108 -155 62 -6 c34 -4 83 -7 110 -8
l47 -1 0 54 0 54 -44 6 c-49 8 -87 42 -181 165 l-49 64 24 16 c103 68 147 162
121 258 -16 58 -53 99 -122 134 l-58 29 -276 0 -275 0 0 -60z m537 -86 c24
-18 28 -29 31 -76 3 -50 0 -58 -24 -77 -37 -29 -84 -41 -190 -48 l-91 -6 -6
33 c-4 18 -7 71 -7 117 l0 85 129 -4 c113 -3 133 -6 158 -24z"/>
<path d="M5464 4127 c-2 -7 -3 -80 -2 -162 l3 -150 68 -3 67 -3 0 101 0 100
80 0 80 0 0 -270 0 -270 -76 0 -75 0 3 -52 3 -53 233 -3 232 -2 0 55 0 55 -80
0 -80 0 0 269 0 269 71 7 c38 4 73 4 77 1 3 -4 8 -49 10 -101 l4 -95 38 0 c21
0 52 3 69 6 l32 7 -3 151 -3 151 -373 3 c-299 2 -374 0 -378 -11z"/>
<path d="M4740 3183 c-452 -7 -1185 -38 -1585 -68 -333 -26 -942 -99 -1030
-125 -29 -8 -29 -8 -4 -9 14 -1 118 6 230 14 254 18 1022 61 1394 76 347 15
1951 15 2395 -1 173 -6 594 -26 935 -45 341 -19 636 -34 655 -34 l35 1 -35 8
c-204 49 -923 118 -1550 150 -365 18 -1172 37 -1440 33z"/>
<path d="M4915 2978 c-3 -7 -4 -629 -3 -1383 l3 -1370 75 0 75 0 0 1380 0
1380 -73 3 c-52 2 -74 -1 -77 -10z"/>
<path d="M2045 2559 c-232 -34 -405 -149 -494 -331 -55 -111 -74 -205 -68
-333 14 -276 190 -484 477 -565 96 -27 293 -37 413 -21 175 24 295 80 411 196
122 121 166 234 166 429 0 123 -16 199 -63 296 -40 82 -158 202 -242 247 -140
74 -405 110 -600 82z m251 -174 c174 -30 299 -119 367 -262 30 -65 32 -73 32
-193 0 -125 0 -125 -39 -202 -80 -161 -198 -235 -402 -254 -133 -12 -269 27
-362 103 -120 98 -183 293 -149 459 40 187 166 310 358 348 96 18 92 18 195 1z"/>
<path d="M3441 2550 c-70 -15 -166 -65 -211 -110 -62 -62 -85 -119 -84 -210 1
-94 27 -152 95 -214 70 -63 146 -89 430 -146 305 -62 350 -78 386 -131 22 -33
25 -47 21 -91 -5 -46 -11 -57 -46 -89 -57 -50 -126 -71 -258 -76 -90 -4 -125
-2 -192 15 -105 27 -192 69 -266 129 -32 26 -64 52 -71 57 -9 7 -34 -7 -83
-48 -39 -31 -73 -64 -76 -73 -12 -30 106 -129 220 -186 146 -73 468 -97 679
-50 205 45 335 174 335 333 0 183 -96 294 -300 349 -41 11 -159 36 -262 56
-286 54 -331 72 -368 143 -16 32 -6 64 31 107 44 49 114 68 254 68 170 0 273
-34 387 -127 l55 -45 67 55 c37 31 70 63 73 71 14 35 -147 147 -268 188 -80
26 -95 28 -294 31 -115 2 -230 -1 -254 -6z"/>
<path d="M240 2531 c-6 -13 -10 -224 -10 -616 l0 -596 118 3 117 3 3 216 2
216 238 6 c262 7 340 19 438 67 73 36 127 91 162 169 22 48 26 70 26 151 1
117 -19 180 -76 244 -53 61 -111 100 -178 120 -69 21 -324 36 -612 36 -205 0
-218 -1 -228 -19z m715 -182 c80 -28 135 -112 135 -206 0 -49 -45 -129 -87
-157 -56 -37 -122 -46 -339 -46 l-194 0 0 216 0 216 223 -5 c152 -3 235 -9
262 -18z"/>
<path d="M5730 2228 c1 -178 5 -393 9 -479 8 -145 10 -160 37 -208 55 -103
191 -198 314 -221 72 -14 379 -14 450 0 30 6 88 26 127 45 132 62 216 175 233
314 5 36 11 247 13 469 l4 402 -128 0 -128 0 -3 -442 -3 -443 -23 -37 c-34
-54 -104 -113 -154 -127 -63 -19 -184 -25 -252 -12 -104 19 -174 66 -224 150
-25 43 -25 49 -33 305 -4 143 -8 336 -8 427 l-1 167 -31 6 c-17 3 -69 6 -115
6 l-84 0 0 -322z"/>
<path d="M7241 2532 c-8 -15 -11 -196 -11 -617 l0 -596 123 3 122 3 3 233 2
232 165 0 164 0 157 -217 c86 -120 165 -226 174 -237 16 -17 28 -18 149 -11
74 4 131 11 131 17 0 6 -60 87 -134 182 -131 168 -206 271 -206 285 0 3 31 20
68 38 90 42 145 92 179 161 26 52 28 67 28 167 0 100 -2 115 -28 167 -51 103
-145 164 -288 187 -33 6 -224 13 -424 17 -361 7 -363 7 -374 -14z m683 -168
c123 -13 187 -104 170 -240 -9 -73 -33 -107 -97 -138 -53 -26 -61 -27 -286
-33 l-231 -6 0 217 0 217 198 -6 c108 -3 219 -8 246 -11z"/>
<path d="M8602 1939 l3 -614 498 -3 497 -2 0 90 0 90 -375 0 -375 0 0 175 0
175 325 0 325 0 0 85 0 85 -322 2 -323 3 -3 172 -2 173 382 2 383 3 -4 80 c-1
44 -5 82 -7 85 -3 2 -230 6 -505 8 l-499 4 2 -613z"/>
</g>
</svg>
